<?xml version="1.0" standalone="no"?><!DOCTYPE svg PUBLIC "-//W3C//DTD SVG 1.1//EN" "http://www.w3.org/Graphics/SVG/1.1/DTD/svg11.dtd"><svg t="1782490485484" class="icon" viewBox="0 0 1024 1024" version="1.1" xmlns="http://www.w3.org/2000/svg" p-id="8679" xmlns:xlink="http://www.w3.org/1999/xlink" width="200" height="200"><path d="M517.973333 192.056889c144.497778-85.902222 282.567111-105.358222 350.947556-36.977778 69.404444 69.404444 48.355556 210.375111-40.561778 356.977778 88.974222 146.545778 109.909333 287.516444 40.561778 356.864-69.404444 69.404444-210.375111 48.355556-356.977778-40.561778-146.545778 88.974222-287.516444 109.909333-356.864 40.561778-69.347556-69.347556-48.355556-210.318222 40.561778-356.920889-88.917333-146.545778-109.909333-287.573333-40.561778-356.920889 69.404444-69.404444 210.375111-48.355556 356.977778 40.561778z m269.312 381.383111l-8.647111 11.605333a997.034667 997.034667 0 0 1-90.225778 103.367111 990.151111 990.151111 0 0 1-114.915555 98.816c110.819556 61.098667 208.440889 74.865778 248.490667 34.759112 40.106667-40.049778 26.339556-137.671111-34.702223-248.547556z m-550.513777 0l-6.144 11.377778c-55.808 106.154667-67.356444 198.485333-28.615112 237.226666 40.049778 40.049778 137.671111 26.282667 248.547556-34.759111A991.004444 991.004444 0 0 1 335.644444 688.355556a990.151111 990.151111 0 0 1-98.872888-114.915556zM512 274.602667l-2.332444 1.649777a910.961778 910.961778 0 0 0-127.146667 106.268445A909.539556 909.539556 0 0 0 274.602667 512c29.525333 43.178667 65.592889 87.096889 107.918222 129.422222A909.539556 909.539556 0 0 0 512 749.397333c43.178667-29.525333 87.096889-65.592889 129.422222-107.918222A909.539556 909.539556 0 0 0 749.397333 512a907.150222 907.150222 0 0 0-107.918222-129.479111A909.539556 909.539556 0 0 0 512 274.602667z m0 147.171555a90.225778 90.225778 0 1 1 0 180.451556 90.225778 90.225778 0 0 1 0-180.451556zM201.955556 201.955556c-40.049778 40.049778-26.282667 137.671111 34.759111 248.547555A991.004444 991.004444 0 0 1 335.644444 335.644444a990.151111 990.151111 0 0 1 114.915556-98.872888C339.740444 175.672889 242.119111 161.905778 202.069333 201.955556z m620.088888 0c-40.106667-40.106667-137.671111-26.339556-248.604444 34.702222A991.004444 991.004444 0 0 1 688.355556 335.644444a990.151111 990.151111 0 0 1 98.872888 114.915556c61.098667-110.819556 74.865778-208.440889 34.759112-248.490667z" p-id="8680" fill="#1196db"></path></svg>